# xmcd
#
# Track frame offsets:
#	150
#	13985
#	28158
#	43645
#	56141
#	70944
#	91382
#	108779
#	120515
#	137790
#	152913
#	167395
#	185519
#	197283
#	211366
#	229749
#	242267
#	258242
#	271584
#	289498
#
# Disc length: 4023 seconds
#
# Revision: 1
# Processed by: cddbd v1.5.1PL0 Copyright (c) Steve Scherf et al.
# Submitted via: audiograbber 1.83.01
#
DISCID=140fb514
DTITLE=Highwayman - Highwaymen 1 and 2
DYEAR=1900
DGENRE=Country
TTITLE0=Highwaymen
TTITLE1=The last cowboy song
TTITLE2=Jim, i wore a tie today
TTITLE3=Big river
TTITLE4=Committed to parkview
TTITLE5=Desperados waiting for a train
TTITLE6=Deportee
TTITLE7=Welfare line
TTITLE8=Against the wind
TTITLE9=The 20th century is almost over
TTITLE10=Silver stallion
TTITLE11=Born and raised in black and white
TTITLE12=Two stories wide
TTITLE13=We're all in your corner
TTITLE14=American remains
TTITLE15=Anthem '84
TTITLE16=Angels love bad man
TTITLE17=Songs that make a difference
TTITLE18=Living legend
TTITLE19=Texas
EXTD=
EXTT0=
EXTT1=
EXTT2=
EXTT3=
EXTT4=
EXTT5=
EXTT6=
EXTT7=
EXTT8=
EXTT9=
EXTT10=
EXTT11=
EXTT12=
EXTT13=
EXTT14=
EXTT15=
EXTT16=
EXTT17=
EXTT18=
EXTT19=
PLAYORDER=
